<svg width="10" height="12" viewBox="0 0 10 12" fill="none" xmlns="http://www.w3.org/2000/svg">
<path d="M5.03992 10.0928C4.51721 10.0928 4.08374 9.65933 4.08374 9.13661V1.48716C4.08374 0.964445 4.51721 0.530975 5.03992 0.530975C5.56264 0.530975 5.9961 0.964445 5.9961 1.48716V9.13661C5.9961 9.65933 5.56264 10.0928 5.03992 10.0928Z" fill="white"/>
<path d="M5.03993 11.3677C4.7977 11.3677 4.55547 11.2785 4.36423 11.0872L0.5395 7.2625C0.169776 6.89278 0.169776 6.28082 0.5395 5.9111C0.909224 5.54137 1.52118 5.54137 1.8909 5.9111L5.03993 9.06012L8.18896 5.9111C8.55868 5.54137 9.17064 5.54137 9.54036 5.9111C9.91008 6.28082 9.91008 6.89278 9.54036 7.2625L5.71563 11.0872C5.5244 11.2785 5.28216 11.3677 5.03993 11.3677Z" fill="white"/>
</svg>
