<svg width="24" height="24" viewBox="0 0 24 24" fill="none" xmlns="http://www.w3.org/2000/svg">
<path d="M17.5019 5.48148C15.5077 3.50617 12.2628 3.50617 10.2685 5.48148L4.06817 11.623C2.64385 13.034 2.64395 15.3299 4.06842 16.7408C4.7807 17.4463 5.71602 17.7991 6.65171 17.799C7.58715 17.7989 8.5229 17.4462 9.23509 16.7408L14.9185 11.1111C15.7733 10.2646 15.7734 8.88713 14.9186 8.04035C14.0639 7.19379 12.6731 7.19382 11.8186 8.04051L8.10184 11.7219C7.8165 12.0045 7.8165 12.4628 8.10178 12.7455C8.38719 13.0281 8.84975 13.0281 9.13516 12.7455L12.8519 9.06397C13.1368 8.78176 13.6004 8.78176 13.8853 9.06388C14.1702 9.34615 14.1702 9.80526 13.8852 10.0875L8.20181 15.7172C7.34706 16.5638 5.95643 16.5639 5.10174 15.7173C4.24708 14.8707 4.24698 13.4932 5.10155 12.6465L11.3019 6.50503C12.7264 5.09418 15.0441 5.09412 16.4686 6.50509C17.1587 7.18856 17.5387 8.09734 17.5387 9.06394C17.5387 10.0306 17.1587 10.9393 16.4685 11.6228L10.2684 17.7645C9.98303 18.0471 9.98303 18.5054 10.2684 18.788C10.4111 18.9294 10.5981 19 10.7851 19C10.9721 19 11.1591 18.9293 11.3018 18.788L17.5018 12.6465C18.468 11.6896 19 10.4173 19 9.064C19.0001 7.71063 18.468 6.43836 17.5019 5.48148Z" fill="#34A0A3"/>
</svg>
