<svg width="18" height="18" viewBox="0 0 18 18" fill="none" xmlns="http://www.w3.org/2000/svg">
<path d="M8.42126 14.4874C8.4404 14.5065 8.46047 14.5246 8.48142 14.5418C8.49064 14.5493 8.50035 14.5558 8.50978 14.5629C8.52167 14.5719 8.53335 14.5811 8.54573 14.5893C8.55729 14.5971 8.56929 14.6038 8.58113 14.6109C8.59215 14.6175 8.60295 14.6244 8.61429 14.6305C8.62651 14.637 8.639 14.6425 8.65144 14.6483C8.66317 14.6539 8.67473 14.6598 8.68678 14.6648C8.69895 14.6698 8.71133 14.6739 8.72366 14.6782C8.73647 14.6829 8.74918 14.6878 8.76233 14.6918C8.77466 14.6955 8.7872 14.6983 8.79969 14.7014C8.81311 14.7047 8.82637 14.7085 8.84 14.7112C8.85435 14.7141 8.8688 14.7158 8.88331 14.7178C8.89526 14.7195 8.90704 14.7218 8.9192 14.723C8.94604 14.7256 8.97298 14.7271 8.99993 14.7271C9.02688 14.7271 9.05382 14.7257 9.08066 14.723C9.09293 14.7218 9.10488 14.7195 9.11704 14.7178C9.13133 14.7158 9.14562 14.7141 9.1598 14.7112C9.17371 14.7085 9.18724 14.7046 9.20093 14.7012C9.21309 14.6981 9.22537 14.6955 9.23742 14.6918C9.25084 14.6877 9.26377 14.6827 9.27691 14.678C9.28897 14.6737 9.30113 14.6697 9.31302 14.6648C9.32529 14.6597 9.33702 14.6538 9.34897 14.6481C9.36124 14.6423 9.37362 14.6369 9.38562 14.6305C9.39708 14.6243 9.40787 14.6174 9.41895 14.6108C9.43078 14.6037 9.44278 14.597 9.45429 14.5893C9.4664 14.5812 9.4778 14.5721 9.48937 14.5635C9.49913 14.5562 9.50911 14.5494 9.5186 14.5417C9.53851 14.5253 9.55755 14.508 9.57582 14.4899C9.57669 14.489 9.57762 14.4884 9.57849 14.4875L13.3968 10.6694C13.7163 10.3499 13.7163 9.83187 13.3968 9.51235C13.0773 9.19282 12.5592 9.19287 12.2397 9.51229L9.81811 11.9337V0.818182C9.81811 0.366327 9.45178 0 8.99993 0C8.54808 0 8.18175 0.366327 8.18175 0.818182V11.9337L5.76037 9.5124C5.44084 9.19287 4.92277 9.19287 4.60329 9.5124C4.28377 9.83193 4.28377 10.3499 4.60329 10.6695L8.42126 14.4874Z" fill="#FBFBFB"/>
<path d="M17.1818 16.3636H0.818182C0.366327 16.3636 0 16.73 0 17.1818C0 17.6337 0.366327 18 0.818182 18H17.1818C17.6337 18 18 17.6337 18 17.1818C18 16.73 17.6337 16.3636 17.1818 16.3636Z" fill="#FBFBFB"/>
</svg>
