<svg width="18" height="18" viewBox="0 0 18 18" fill="none" xmlns="http://www.w3.org/2000/svg">
<path d="M5.76029 5.21482L8.18189 2.79338V13.909C8.18189 14.3608 8.54822 14.7272 9.00007 14.7272C9.45193 14.7272 9.81825 14.3608 9.81825 13.909V2.79344L12.2396 5.21482C12.3994 5.37458 12.6088 5.45449 12.8181 5.45449C13.0275 5.45449 13.2369 5.37464 13.3967 5.21482C13.7162 4.89529 13.7162 4.37727 13.3967 4.05775L9.57874 0.239782C9.5596 0.220636 9.53947 0.202582 9.51853 0.1854C9.50925 0.177764 9.49944 0.171164 9.49 0.164018C9.47816 0.155182 9.4666 0.146018 9.45433 0.137836C9.44276 0.130091 9.43071 0.123382 9.41887 0.116236C9.40785 0.109636 9.39711 0.102709 9.38576 0.0966545C9.3736 0.0901636 9.36116 0.0847091 9.34878 0.0788727C9.33695 0.0733091 9.32527 0.0673636 9.31316 0.0623455C9.30122 0.0573818 9.28905 0.0534 9.27689 0.0490909C9.26385 0.0444 9.25093 0.0393818 9.23756 0.0353455C9.22551 0.0316909 9.21335 0.0290727 9.20118 0.0259636C9.18744 0.0224727 9.17385 0.0186545 9.15989 0.0158727C9.14598 0.0130909 9.13191 0.0115091 9.118 0.00949091C9.10556 0.00769091 9.09335 0.00534545 9.08075 0.00409091C9.05527 0.00158182 9.02975 0.000381818 9.00427 0.000218182C9.00291 0.000218182 9.00149 0 9.00013 0C8.99833 0 8.99653 0.000272727 8.99467 0.000272727C8.96958 0.000436364 8.94449 0.00158182 8.91956 0.00409091C8.9068 0.00534545 8.89431 0.00769091 8.88176 0.00954545C8.86796 0.0115636 8.85411 0.0131455 8.84042 0.0158182C8.82629 0.0186 8.8126 0.0224727 8.79875 0.0260182C8.78669 0.0290727 8.77464 0.0316909 8.76275 0.0352909C8.74927 0.0393818 8.73624 0.0444 8.72304 0.0491455C8.71104 0.0534545 8.69898 0.0573818 8.68709 0.0622909C8.67482 0.0673636 8.66315 0.0733091 8.6512 0.0789818C8.63893 0.0847636 8.62655 0.0902182 8.61449 0.0966545C8.60315 0.102764 8.59235 0.109691 8.58127 0.116291C8.56938 0.123382 8.55738 0.130091 8.54587 0.137836C8.53371 0.145909 8.52236 0.154909 8.51069 0.163691C8.50098 0.170945 8.491 0.177709 8.48151 0.185509C8.4616 0.201818 8.44251 0.219164 8.42424 0.237273C8.42336 0.238145 8.42244 0.238855 8.42156 0.239673L4.60327 4.05769C4.2838 4.37722 4.28375 4.89524 4.60327 5.21476C4.92275 5.53435 5.44082 5.53424 5.76029 5.21482Z" fill="#34A0A3"/>
<path d="M17.1818 16.3636H0.818182C0.366327 16.3636 0 16.73 0 17.1818C0 17.6337 0.366327 18 0.818182 18H17.1818C17.6337 18 18 17.6337 18 17.1818C18 16.73 17.6337 16.3636 17.1818 16.3636Z" fill="#34A0A3"/>
</svg>
