<svg width="24" height="24" viewBox="0 0 24 24" fill="none" xmlns="http://www.w3.org/2000/svg">
<path d="M6.16145 16.3302C5.84505 16.6466 5.82998 17.2117 6.16899 17.5431C6.50046 17.8746 7.06547 17.8671 7.38188 17.5507L11.9924 12.9326L16.6104 17.5507C16.9343 17.8746 17.4918 17.8746 17.8233 17.5431C18.1472 17.2041 18.1548 16.6542 17.8233 16.3302L13.2128 11.7122L17.8233 7.10173C18.1548 6.77779 18.1548 6.22031 17.8233 5.88884C17.4843 5.5649 16.9343 5.55736 16.6104 5.8813L11.9924 10.4993L7.38188 5.8813C7.06547 5.5649 6.49293 5.54983 6.16899 5.88884C5.83752 6.22031 5.84505 6.78532 6.16145 7.10173L10.7795 11.7122L6.16145 16.3302Z" fill="#353537"/>
</svg>
